# xmcd
#
# Track frame offsets: 
#        150
#        18392
#        35186
#        54239
#        76332
#        102778
#        124115
#        149208
#        165599
#        198216
#        216776
#        235826
#        251697
#        269973
#        290744
#
# Disc length: 4179 seconds
#
# Revision: 0
# Processed by: cddbd v1.5.2PL0 Copyright (c) Steve Scherf et al.
# Submitted via: ExactAudioCopy v0.99pb5
#
DISCID=e510510f
DTITLE=Various Artist - 100% Dream Dance
DYEAR=1999
DGENRE=Dream
TTITLE0=DJ Bube - Space Music (Back From Galaxy Radio Mix)
TTITLE1=Executive Board Funky - Can You Feel The Force (Club Radio)
TTITLE2=Romantics - Jvory (Eternal Radio)
TTITLE3=Pyramid - Blach River (Piano Version)
TTITLE4=Freak Brothers feat. David Christie - Saddle Up (Home Stretch 
TTITLE4=Mix Club Edit)
TTITLE5=Foxter - Lemin Tree (Pro-xxive)
TTITLE6=DJ Mosquito - Over Jt's Right (Extended Version)
TTITLE7=Mundo Libre - Locos Pocos (Radio Version)
TTITLE8=Steve Stone - Walhing On The Moon (Extende Version)
TTITLE9=Mark Question - Jt's A Dream (Radio Edit)
TTITLE10=Toba - Hanah (Mosquito Mix)
TTITLE11=Attack - High Experience (Club Edit)
TTITLE12=X-Art - The Light (Vocal Single)
TTITLE13=C-Zone - War Games (Radio Mix)
TTITLE14=Tac Tac Tac - Give Me Your Love (Original Club Version)
EXTD=
EXTT0=
EXTT1=
EXTT2=
EXTT3=
EXTT4=
EXTT5=
EXTT6=
EXTT7=
EXTT8=
EXTT9=
EXTT10=
EXTT11=
EXTT12=
EXTT13=
EXTT14=
PLAYORDER=
